<mxfile host="app.diagrams.net" agent="Mozilla/5.0 (Windows NT 10.0; Win64; x64) AppleWebKit/537.36 (KHTML, like Gecko) Chrome/127.0.0.0 Safari/537.36" version="24.7.7">
  <diagram name="Page-1" id="mbn7OeVY6LBTI4Tf4uWz">
    <mxGraphModel dx="1050" dy="570" grid="1" gridSize="10" guides="1" tooltips="1" connect="1" arrows="1" fold="1" page="1" pageScale="1" pageWidth="827" pageHeight="1169" math="0" shadow="0">
      <root>
        <mxCell id="0" />
        <mxCell id="1" parent="0" />
        <mxCell id="bM-OQi3ICgPVKk1OslJS-1" value="" style="rounded=0;whiteSpace=wrap;html=1;" parent="1" vertex="1">
          <mxGeometry x="160" y="40" width="250" height="240" as="geometry" />
        </mxCell>
        <mxCell id="bM-OQi3ICgPVKk1OslJS-3" value="project_id" style="text;html=1;align=center;verticalAlign=middle;whiteSpace=wrap;rounded=0;strokeColor=default;" parent="1" vertex="1">
          <mxGeometry x="160" y="40" width="150" height="30" as="geometry" />
        </mxCell>
        <mxCell id="bM-OQi3ICgPVKk1OslJS-4" value="INT 11" style="text;html=1;align=center;verticalAlign=middle;whiteSpace=wrap;rounded=0;strokeColor=default;" parent="1" vertex="1">
          <mxGeometry x="310" y="40" width="100" height="30" as="geometry" />
        </mxCell>
        <mxCell id="bM-OQi3ICgPVKk1OslJS-5" value="project_car_fk" style="text;html=1;align=center;verticalAlign=middle;whiteSpace=wrap;rounded=0;strokeColor=default;" parent="1" vertex="1">
          <mxGeometry x="160" y="70" width="150" height="30" as="geometry" />
        </mxCell>
        <mxCell id="bM-OQi3ICgPVKk1OslJS-6" value="INT 11" style="text;html=1;align=center;verticalAlign=middle;whiteSpace=wrap;rounded=0;strokeColor=default;" parent="1" vertex="1">
          <mxGeometry x="310" y="70" width="100" height="30" as="geometry" />
        </mxCell>
        <mxCell id="bM-OQi3ICgPVKk1OslJS-7" value="project_customer_fk" style="text;html=1;align=center;verticalAlign=middle;whiteSpace=wrap;rounded=0;strokeColor=default;" parent="1" vertex="1">
          <mxGeometry x="160" y="100" width="170" height="30" as="geometry" />
        </mxCell>
        <mxCell id="bM-OQi3ICgPVKk1OslJS-8" value="INT 11" style="text;html=1;align=center;verticalAlign=middle;whiteSpace=wrap;rounded=0;strokeColor=default;" parent="1" vertex="1">
          <mxGeometry x="330" y="100" width="80" height="30" as="geometry" />
        </mxCell>
        <mxCell id="bM-OQi3ICgPVKk1OslJS-9" value="project_problem_desriptiom" style="text;html=1;align=center;verticalAlign=middle;whiteSpace=wrap;rounded=0;strokeColor=default;" parent="1" vertex="1">
          <mxGeometry x="160" y="130" width="170" height="30" as="geometry" />
        </mxCell>
        <mxCell id="bM-OQi3ICgPVKk1OslJS-10" value="text" style="text;html=1;align=center;verticalAlign=middle;whiteSpace=wrap;rounded=0;strokeColor=default;" parent="1" vertex="1">
          <mxGeometry x="330" y="130" width="80" height="30" as="geometry" />
        </mxCell>
        <mxCell id="bM-OQi3ICgPVKk1OslJS-11" value="projects" style="text;html=1;align=center;verticalAlign=middle;whiteSpace=wrap;rounded=0;" parent="1" vertex="1">
          <mxGeometry x="255" y="10" width="60" height="30" as="geometry" />
        </mxCell>
        <mxCell id="bM-OQi3ICgPVKk1OslJS-12" value="" style="rounded=0;whiteSpace=wrap;html=1;" parent="1" vertex="1">
          <mxGeometry x="450" y="40" width="240" height="120" as="geometry" />
        </mxCell>
        <mxCell id="bM-OQi3ICgPVKk1OslJS-13" value="project_customer_id" style="text;html=1;align=center;verticalAlign=middle;whiteSpace=wrap;rounded=0;strokeColor=default;" parent="1" vertex="1">
          <mxGeometry x="450" y="40" width="130" height="30" as="geometry" />
        </mxCell>
        <mxCell id="bM-OQi3ICgPVKk1OslJS-14" value="INT 11" style="text;html=1;align=center;verticalAlign=middle;whiteSpace=wrap;rounded=0;strokeColor=default;" parent="1" vertex="1">
          <mxGeometry x="580" y="40" width="110" height="30" as="geometry" />
        </mxCell>
        <mxCell id="bM-OQi3ICgPVKk1OslJS-15" value="project_customer_fname" style="text;html=1;align=center;verticalAlign=middle;whiteSpace=wrap;rounded=0;strokeColor=default;" parent="1" vertex="1">
          <mxGeometry x="450" y="70" width="140" height="30" as="geometry" />
        </mxCell>
        <mxCell id="bM-OQi3ICgPVKk1OslJS-16" value="VARCHAR 255" style="text;html=1;align=center;verticalAlign=middle;whiteSpace=wrap;rounded=0;strokeColor=default;" parent="1" vertex="1">
          <mxGeometry x="590" y="70" width="100" height="30" as="geometry" />
        </mxCell>
        <mxCell id="bM-OQi3ICgPVKk1OslJS-17" value="project_customer_lname" style="text;html=1;align=center;verticalAlign=middle;whiteSpace=wrap;rounded=0;strokeColor=default;" parent="1" vertex="1">
          <mxGeometry x="450" y="100" width="140" height="30" as="geometry" />
        </mxCell>
        <mxCell id="bM-OQi3ICgPVKk1OslJS-18" value="VARCHAR 255" style="text;html=1;align=center;verticalAlign=middle;whiteSpace=wrap;rounded=0;strokeColor=default;" parent="1" vertex="1">
          <mxGeometry x="590" y="100" width="100" height="30" as="geometry" />
        </mxCell>
        <mxCell id="bM-OQi3ICgPVKk1OslJS-19" value="project_customer_phone" style="text;html=1;align=center;verticalAlign=middle;whiteSpace=wrap;rounded=0;strokeColor=default;" parent="1" vertex="1">
          <mxGeometry x="450" y="130" width="140" height="30" as="geometry" />
        </mxCell>
        <mxCell id="bM-OQi3ICgPVKk1OslJS-20" value="VARCHAR 255" style="text;html=1;align=center;verticalAlign=middle;whiteSpace=wrap;rounded=0;strokeColor=default;" parent="1" vertex="1">
          <mxGeometry x="590" y="130" width="100" height="30" as="geometry" />
        </mxCell>
        <mxCell id="bM-OQi3ICgPVKk1OslJS-21" value="project_work_description" style="text;html=1;align=center;verticalAlign=middle;whiteSpace=wrap;rounded=0;strokeColor=default;" parent="1" vertex="1">
          <mxGeometry x="160" y="160" width="170" height="30" as="geometry" />
        </mxCell>
        <mxCell id="bM-OQi3ICgPVKk1OslJS-22" value="text" style="text;html=1;align=center;verticalAlign=middle;whiteSpace=wrap;rounded=0;strokeColor=default;" parent="1" vertex="1">
          <mxGeometry x="330" y="160" width="80" height="30" as="geometry" />
        </mxCell>
        <mxCell id="bM-OQi3ICgPVKk1OslJS-23" value="project_status_fk" style="text;html=1;align=center;verticalAlign=middle;whiteSpace=wrap;rounded=0;strokeColor=default;" parent="1" vertex="1">
          <mxGeometry x="160" y="190" width="170" height="30" as="geometry" />
        </mxCell>
        <mxCell id="bM-OQi3ICgPVKk1OslJS-24" value="INT 11" style="text;html=1;align=center;verticalAlign=middle;whiteSpace=wrap;rounded=0;strokeColor=default;" parent="1" vertex="1">
          <mxGeometry x="330" y="190" width="80" height="30" as="geometry" />
        </mxCell>
        <mxCell id="bM-OQi3ICgPVKk1OslJS-25" value="" style="endArrow=classic;html=1;rounded=0;exitX=0;exitY=0.5;exitDx=0;exitDy=0;entryX=1;entryY=0.5;entryDx=0;entryDy=0;" parent="1" source="bM-OQi3ICgPVKk1OslJS-13" target="bM-OQi3ICgPVKk1OslJS-8" edge="1">
          <mxGeometry width="50" height="50" relative="1" as="geometry">
            <mxPoint x="320" y="220" as="sourcePoint" />
            <mxPoint x="430" y="180" as="targetPoint" />
            <Array as="points">
              <mxPoint x="430" y="55" />
              <mxPoint x="430" y="115" />
            </Array>
          </mxGeometry>
        </mxCell>
        <mxCell id="bM-OQi3ICgPVKk1OslJS-26" value="project_customers" style="text;html=1;align=center;verticalAlign=middle;whiteSpace=wrap;rounded=0;" parent="1" vertex="1">
          <mxGeometry x="540" y="160" width="60" height="30" as="geometry" />
        </mxCell>
        <mxCell id="bM-OQi3ICgPVKk1OslJS-27" value="" style="rounded=0;whiteSpace=wrap;html=1;" parent="1" vertex="1">
          <mxGeometry x="160" y="320" width="240" height="120" as="geometry" />
        </mxCell>
        <mxCell id="bM-OQi3ICgPVKk1OslJS-28" value="project_car_id" style="text;html=1;align=center;verticalAlign=middle;whiteSpace=wrap;rounded=0;strokeColor=default;" parent="1" vertex="1">
          <mxGeometry x="160" y="320" width="130" height="30" as="geometry" />
        </mxCell>
        <mxCell id="bM-OQi3ICgPVKk1OslJS-29" value="INT 11" style="text;html=1;align=center;verticalAlign=middle;whiteSpace=wrap;rounded=0;strokeColor=default;" parent="1" vertex="1">
          <mxGeometry x="290" y="320" width="110" height="30" as="geometry" />
        </mxCell>
        <mxCell id="bM-OQi3ICgPVKk1OslJS-30" value="project_car_brand" style="text;html=1;align=center;verticalAlign=middle;whiteSpace=wrap;rounded=0;strokeColor=default;" parent="1" vertex="1">
          <mxGeometry x="160" y="350" width="140" height="30" as="geometry" />
        </mxCell>
        <mxCell id="bM-OQi3ICgPVKk1OslJS-31" value="VARCHAR 255" style="text;html=1;align=center;verticalAlign=middle;whiteSpace=wrap;rounded=0;strokeColor=default;" parent="1" vertex="1">
          <mxGeometry x="300" y="350" width="100" height="30" as="geometry" />
        </mxCell>
        <mxCell id="bM-OQi3ICgPVKk1OslJS-32" value="project_car_model" style="text;html=1;align=center;verticalAlign=middle;whiteSpace=wrap;rounded=0;strokeColor=default;" parent="1" vertex="1">
          <mxGeometry x="160" y="380" width="140" height="30" as="geometry" />
        </mxCell>
        <mxCell id="bM-OQi3ICgPVKk1OslJS-33" value="VARCHAR 255" style="text;html=1;align=center;verticalAlign=middle;whiteSpace=wrap;rounded=0;strokeColor=default;" parent="1" vertex="1">
          <mxGeometry x="300" y="380" width="100" height="30" as="geometry" />
        </mxCell>
        <mxCell id="bM-OQi3ICgPVKk1OslJS-34" value="project_car_license" style="text;html=1;align=center;verticalAlign=middle;whiteSpace=wrap;rounded=0;strokeColor=default;" parent="1" vertex="1">
          <mxGeometry x="160" y="410" width="140" height="30" as="geometry" />
        </mxCell>
        <mxCell id="bM-OQi3ICgPVKk1OslJS-35" value="VARCHAR 255" style="text;html=1;align=center;verticalAlign=middle;whiteSpace=wrap;rounded=0;strokeColor=default;" parent="1" vertex="1">
          <mxGeometry x="300" y="410" width="100" height="30" as="geometry" />
        </mxCell>
        <mxCell id="bM-OQi3ICgPVKk1OslJS-36" value="project_cars" style="text;html=1;align=center;verticalAlign=middle;whiteSpace=wrap;rounded=0;" parent="1" vertex="1">
          <mxGeometry x="250" y="440" width="60" height="30" as="geometry" />
        </mxCell>
        <mxCell id="bM-OQi3ICgPVKk1OslJS-37" value="" style="endArrow=classic;html=1;rounded=0;entryX=0;entryY=0.5;entryDx=0;entryDy=0;exitX=0;exitY=0.5;exitDx=0;exitDy=0;" parent="1" source="bM-OQi3ICgPVKk1OslJS-28" target="bM-OQi3ICgPVKk1OslJS-5" edge="1">
          <mxGeometry width="50" height="50" relative="1" as="geometry">
            <mxPoint x="60" y="170" as="sourcePoint" />
            <mxPoint x="110" y="120" as="targetPoint" />
            <Array as="points">
              <mxPoint x="130" y="325" />
              <mxPoint x="130" y="85" />
            </Array>
          </mxGeometry>
        </mxCell>
        <mxCell id="bM-OQi3ICgPVKk1OslJS-38" value="" style="rounded=0;whiteSpace=wrap;html=1;" parent="1" vertex="1">
          <mxGeometry x="450" y="220" width="240" height="60" as="geometry" />
        </mxCell>
        <mxCell id="bM-OQi3ICgPVKk1OslJS-39" value="project_status_id" style="text;html=1;align=center;verticalAlign=middle;whiteSpace=wrap;rounded=0;strokeColor=default;" parent="1" vertex="1">
          <mxGeometry x="450" y="220" width="130" height="30" as="geometry" />
        </mxCell>
        <mxCell id="bM-OQi3ICgPVKk1OslJS-40" value="INT 11" style="text;html=1;align=center;verticalAlign=middle;whiteSpace=wrap;rounded=0;strokeColor=default;" parent="1" vertex="1">
          <mxGeometry x="580" y="220" width="110" height="30" as="geometry" />
        </mxCell>
        <mxCell id="bM-OQi3ICgPVKk1OslJS-41" value="project_status_name" style="text;html=1;align=center;verticalAlign=middle;whiteSpace=wrap;rounded=0;strokeColor=default;" parent="1" vertex="1">
          <mxGeometry x="450" y="250" width="140" height="30" as="geometry" />
        </mxCell>
        <mxCell id="bM-OQi3ICgPVKk1OslJS-42" value="VARCHAR 255" style="text;html=1;align=center;verticalAlign=middle;whiteSpace=wrap;rounded=0;strokeColor=default;" parent="1" vertex="1">
          <mxGeometry x="590" y="250" width="100" height="30" as="geometry" />
        </mxCell>
        <mxCell id="bM-OQi3ICgPVKk1OslJS-47" value="project_status" style="text;html=1;align=center;verticalAlign=middle;whiteSpace=wrap;rounded=0;" parent="1" vertex="1">
          <mxGeometry x="700" y="235" width="60" height="30" as="geometry" />
        </mxCell>
        <mxCell id="bM-OQi3ICgPVKk1OslJS-48" value="project_worker_fk" style="text;html=1;align=center;verticalAlign=middle;whiteSpace=wrap;rounded=0;strokeColor=default;" parent="1" vertex="1">
          <mxGeometry x="160" y="220" width="170" height="30" as="geometry" />
        </mxCell>
        <mxCell id="bM-OQi3ICgPVKk1OslJS-49" value="INT 11" style="text;html=1;align=center;verticalAlign=middle;whiteSpace=wrap;rounded=0;strokeColor=default;" parent="1" vertex="1">
          <mxGeometry x="330" y="220" width="80" height="30" as="geometry" />
        </mxCell>
        <mxCell id="bM-OQi3ICgPVKk1OslJS-50" value="" style="endArrow=classic;html=1;rounded=0;exitX=0.5;exitY=0;exitDx=0;exitDy=0;entryX=1;entryY=0.5;entryDx=0;entryDy=0;" parent="1" source="bM-OQi3ICgPVKk1OslJS-39" target="bM-OQi3ICgPVKk1OslJS-24" edge="1">
          <mxGeometry width="50" height="50" relative="1" as="geometry">
            <mxPoint x="320" y="300" as="sourcePoint" />
            <mxPoint x="460" y="200" as="targetPoint" />
            <Array as="points">
              <mxPoint x="515" y="205" />
            </Array>
          </mxGeometry>
        </mxCell>
        <mxCell id="bM-OQi3ICgPVKk1OslJS-51" value="" style="rounded=0;whiteSpace=wrap;html=1;strokeColor=none;" parent="1" vertex="1">
          <mxGeometry x="160" y="480" width="240" height="150" as="geometry" />
        </mxCell>
        <mxCell id="bM-OQi3ICgPVKk1OslJS-52" value="project_accounting_id" style="text;html=1;align=center;verticalAlign=middle;whiteSpace=wrap;rounded=0;strokeColor=default;" parent="1" vertex="1">
          <mxGeometry x="160" y="480" width="130" height="30" as="geometry" />
        </mxCell>
        <mxCell id="bM-OQi3ICgPVKk1OslJS-53" value="INT 11" style="text;html=1;align=center;verticalAlign=middle;whiteSpace=wrap;rounded=0;strokeColor=default;" parent="1" vertex="1">
          <mxGeometry x="290" y="480" width="110" height="30" as="geometry" />
        </mxCell>
        <mxCell id="bM-OQi3ICgPVKk1OslJS-54" value="project_nr_fk" style="text;html=1;align=center;verticalAlign=middle;whiteSpace=wrap;rounded=0;strokeColor=default;" parent="1" vertex="1">
          <mxGeometry x="160" y="510" width="140" height="30" as="geometry" />
        </mxCell>
        <mxCell id="bM-OQi3ICgPVKk1OslJS-55" value="INT 11" style="text;html=1;align=center;verticalAlign=middle;whiteSpace=wrap;rounded=0;strokeColor=default;" parent="1" vertex="1">
          <mxGeometry x="300" y="510" width="100" height="30" as="geometry" />
        </mxCell>
        <mxCell id="bM-OQi3ICgPVKk1OslJS-56" value="project_price" style="text;html=1;align=center;verticalAlign=middle;whiteSpace=wrap;rounded=0;strokeColor=default;" parent="1" vertex="1">
          <mxGeometry x="160" y="540" width="140" height="30" as="geometry" />
        </mxCell>
        <mxCell id="bM-OQi3ICgPVKk1OslJS-57" value="VARCHAR 255" style="text;html=1;align=center;verticalAlign=middle;whiteSpace=wrap;rounded=0;strokeColor=default;" parent="1" vertex="1">
          <mxGeometry x="300" y="540" width="100" height="30" as="geometry" />
        </mxCell>
        <mxCell id="bM-OQi3ICgPVKk1OslJS-58" value="project_hours" style="text;html=1;align=center;verticalAlign=middle;whiteSpace=wrap;rounded=0;strokeColor=default;" parent="1" vertex="1">
          <mxGeometry x="160" y="570" width="140" height="30" as="geometry" />
        </mxCell>
        <mxCell id="bM-OQi3ICgPVKk1OslJS-59" value="VARCHAR 255" style="text;html=1;align=center;verticalAlign=middle;whiteSpace=wrap;rounded=0;strokeColor=default;" parent="1" vertex="1">
          <mxGeometry x="300" y="570" width="100" height="30" as="geometry" />
        </mxCell>
        <mxCell id="bM-OQi3ICgPVKk1OslJS-60" value="projet_accounting" style="text;html=1;align=center;verticalAlign=middle;whiteSpace=wrap;rounded=0;" parent="1" vertex="1">
          <mxGeometry x="255" y="640" width="60" height="30" as="geometry" />
        </mxCell>
        <mxCell id="bM-OQi3ICgPVKk1OslJS-62" value="project_accounting_status_fk" style="text;html=1;align=center;verticalAlign=middle;whiteSpace=wrap;rounded=0;strokeColor=default;" parent="1" vertex="1">
          <mxGeometry x="140" y="600" width="160" height="30" as="geometry" />
        </mxCell>
        <mxCell id="bM-OQi3ICgPVKk1OslJS-63" value="INT 11" style="text;html=1;align=center;verticalAlign=middle;whiteSpace=wrap;rounded=0;strokeColor=default;" parent="1" vertex="1">
          <mxGeometry x="300" y="600" width="100" height="30" as="geometry" />
        </mxCell>
        <mxCell id="bM-OQi3ICgPVKk1OslJS-64" value="" style="rounded=0;whiteSpace=wrap;html=1;" parent="1" vertex="1">
          <mxGeometry x="470" y="650" width="240" height="60" as="geometry" />
        </mxCell>
        <mxCell id="bM-OQi3ICgPVKk1OslJS-65" value="project_status_id" style="text;html=1;align=center;verticalAlign=middle;whiteSpace=wrap;rounded=0;strokeColor=default;" parent="1" vertex="1">
          <mxGeometry x="470" y="650" width="130" height="30" as="geometry" />
        </mxCell>
        <mxCell id="bM-OQi3ICgPVKk1OslJS-66" value="INT 11" style="text;html=1;align=center;verticalAlign=middle;whiteSpace=wrap;rounded=0;strokeColor=default;" parent="1" vertex="1">
          <mxGeometry x="600" y="650" width="110" height="30" as="geometry" />
        </mxCell>
        <mxCell id="bM-OQi3ICgPVKk1OslJS-67" value="project_status_name" style="text;html=1;align=center;verticalAlign=middle;whiteSpace=wrap;rounded=0;strokeColor=default;" parent="1" vertex="1">
          <mxGeometry x="470" y="680" width="140" height="30" as="geometry" />
        </mxCell>
        <mxCell id="bM-OQi3ICgPVKk1OslJS-68" value="VARCHAR 255" style="text;html=1;align=center;verticalAlign=middle;whiteSpace=wrap;rounded=0;strokeColor=default;" parent="1" vertex="1">
          <mxGeometry x="610" y="680" width="100" height="30" as="geometry" />
        </mxCell>
        <mxCell id="bM-OQi3ICgPVKk1OslJS-69" value="" style="endArrow=classic;html=1;rounded=0;exitX=0;exitY=0.5;exitDx=0;exitDy=0;entryX=0;entryY=0.5;entryDx=0;entryDy=0;" parent="1" source="bM-OQi3ICgPVKk1OslJS-3" target="bM-OQi3ICgPVKk1OslJS-54" edge="1">
          <mxGeometry width="50" height="50" relative="1" as="geometry">
            <mxPoint x="310" y="170" as="sourcePoint" />
            <mxPoint y="140" as="targetPoint" />
            <Array as="points">
              <mxPoint x="110" y="55" />
              <mxPoint x="110" y="525" />
            </Array>
          </mxGeometry>
        </mxCell>
        <mxCell id="bM-OQi3ICgPVKk1OslJS-70" value="project_accounting_status" style="text;html=1;align=center;verticalAlign=middle;whiteSpace=wrap;rounded=0;" parent="1" vertex="1">
          <mxGeometry x="570" y="710" width="60" height="30" as="geometry" />
        </mxCell>
        <mxCell id="bM-OQi3ICgPVKk1OslJS-71" value="" style="endArrow=classic;html=1;rounded=0;exitX=0;exitY=0.5;exitDx=0;exitDy=0;entryX=1;entryY=0.5;entryDx=0;entryDy=0;" parent="1" source="bM-OQi3ICgPVKk1OslJS-65" target="bM-OQi3ICgPVKk1OslJS-63" edge="1">
          <mxGeometry width="50" height="50" relative="1" as="geometry">
            <mxPoint x="310" y="490" as="sourcePoint" />
            <mxPoint x="360" y="440" as="targetPoint" />
            <Array as="points">
              <mxPoint x="430" y="665" />
            </Array>
          </mxGeometry>
        </mxCell>
        <mxCell id="bM-OQi3ICgPVKk1OslJS-72" value="" style="rounded=0;whiteSpace=wrap;html=1;" parent="1" vertex="1">
          <mxGeometry x="440" y="310" width="240" height="120" as="geometry" />
        </mxCell>
        <mxCell id="bM-OQi3ICgPVKk1OslJS-73" value="worker_id" style="text;html=1;align=center;verticalAlign=middle;whiteSpace=wrap;rounded=0;strokeColor=default;" parent="1" vertex="1">
          <mxGeometry x="440" y="310" width="130" height="30" as="geometry" />
        </mxCell>
        <mxCell id="bM-OQi3ICgPVKk1OslJS-74" value="INT 11" style="text;html=1;align=center;verticalAlign=middle;whiteSpace=wrap;rounded=0;strokeColor=default;" parent="1" vertex="1">
          <mxGeometry x="570" y="310" width="110" height="30" as="geometry" />
        </mxCell>
        <mxCell id="bM-OQi3ICgPVKk1OslJS-75" value="worker_username" style="text;html=1;align=center;verticalAlign=middle;whiteSpace=wrap;rounded=0;strokeColor=default;" parent="1" vertex="1">
          <mxGeometry x="440" y="340" width="140" height="30" as="geometry" />
        </mxCell>
        <mxCell id="bM-OQi3ICgPVKk1OslJS-76" value="VARCHAR 255" style="text;html=1;align=center;verticalAlign=middle;whiteSpace=wrap;rounded=0;strokeColor=default;" parent="1" vertex="1">
          <mxGeometry x="580" y="340" width="100" height="30" as="geometry" />
        </mxCell>
        <mxCell id="bM-OQi3ICgPVKk1OslJS-79" value="worker_password" style="text;html=1;align=center;verticalAlign=middle;whiteSpace=wrap;rounded=0;strokeColor=default;" parent="1" vertex="1">
          <mxGeometry x="440" y="370" width="140" height="30" as="geometry" />
        </mxCell>
        <mxCell id="bM-OQi3ICgPVKk1OslJS-80" value="VARCHAR 255" style="text;html=1;align=center;verticalAlign=middle;whiteSpace=wrap;rounded=0;strokeColor=default;" parent="1" vertex="1">
          <mxGeometry x="580" y="370" width="100" height="30" as="geometry" />
        </mxCell>
        <mxCell id="bM-OQi3ICgPVKk1OslJS-81" value="workers" style="text;html=1;align=center;verticalAlign=middle;whiteSpace=wrap;rounded=0;" parent="1" vertex="1">
          <mxGeometry x="680" y="370" width="60" height="30" as="geometry" />
        </mxCell>
        <mxCell id="bM-OQi3ICgPVKk1OslJS-82" value="" style="endArrow=classic;html=1;rounded=0;exitX=0;exitY=0.5;exitDx=0;exitDy=0;entryX=1;entryY=0.5;entryDx=0;entryDy=0;" parent="1" source="bM-OQi3ICgPVKk1OslJS-73" target="bM-OQi3ICgPVKk1OslJS-49" edge="1">
          <mxGeometry width="50" height="50" relative="1" as="geometry">
            <mxPoint x="310" y="290" as="sourcePoint" />
            <mxPoint x="430" y="240" as="targetPoint" />
            <Array as="points">
              <mxPoint x="430" y="310" />
              <mxPoint x="430" y="235" />
            </Array>
          </mxGeometry>
        </mxCell>
        <mxCell id="bM-OQi3ICgPVKk1OslJS-83" value="project_price" style="text;html=1;align=center;verticalAlign=middle;whiteSpace=wrap;rounded=0;strokeColor=default;" parent="1" vertex="1">
          <mxGeometry x="160" y="250" width="170" height="30" as="geometry" />
        </mxCell>
        <mxCell id="bM-OQi3ICgPVKk1OslJS-84" value="VARCHAR 255" style="text;html=1;align=center;verticalAlign=middle;whiteSpace=wrap;rounded=0;strokeColor=default;" parent="1" vertex="1">
          <mxGeometry x="330" y="250" width="80" height="30" as="geometry" />
        </mxCell>
        <mxCell id="bM-OQi3ICgPVKk1OslJS-85" value="worker_hours" style="text;html=1;align=center;verticalAlign=middle;whiteSpace=wrap;rounded=0;strokeColor=default;" parent="1" vertex="1">
          <mxGeometry x="440" y="400" width="140" height="30" as="geometry" />
        </mxCell>
        <mxCell id="bM-OQi3ICgPVKk1OslJS-86" value="VARCHAR 255" style="text;html=1;align=center;verticalAlign=middle;whiteSpace=wrap;rounded=0;strokeColor=default;" parent="1" vertex="1">
          <mxGeometry x="580" y="400" width="100" height="30" as="geometry" />
        </mxCell>
        <mxCell id="bM-OQi3ICgPVKk1OslJS-87" value="" style="rounded=0;whiteSpace=wrap;html=1;" parent="1" vertex="1">
          <mxGeometry x="440" y="495" width="240" height="60" as="geometry" />
        </mxCell>
        <mxCell id="bM-OQi3ICgPVKk1OslJS-88" value="worker_role_id" style="text;html=1;align=center;verticalAlign=middle;whiteSpace=wrap;rounded=0;strokeColor=default;" parent="1" vertex="1">
          <mxGeometry x="440" y="495" width="130" height="30" as="geometry" />
        </mxCell>
        <mxCell id="bM-OQi3ICgPVKk1OslJS-89" value="INT 11" style="text;html=1;align=center;verticalAlign=middle;whiteSpace=wrap;rounded=0;strokeColor=default;" parent="1" vertex="1">
          <mxGeometry x="570" y="495" width="110" height="30" as="geometry" />
        </mxCell>
        <mxCell id="bM-OQi3ICgPVKk1OslJS-90" value="worker_role_name" style="text;html=1;align=center;verticalAlign=middle;whiteSpace=wrap;rounded=0;strokeColor=default;" parent="1" vertex="1">
          <mxGeometry x="440" y="525" width="140" height="30" as="geometry" />
        </mxCell>
        <mxCell id="bM-OQi3ICgPVKk1OslJS-91" value="VARCHAR 255" style="text;html=1;align=center;verticalAlign=middle;whiteSpace=wrap;rounded=0;strokeColor=default;" parent="1" vertex="1">
          <mxGeometry x="580" y="525" width="100" height="30" as="geometry" />
        </mxCell>
        <mxCell id="bM-OQi3ICgPVKk1OslJS-92" value="project_worker_role" style="text;html=1;align=center;verticalAlign=middle;whiteSpace=wrap;rounded=0;" parent="1" vertex="1">
          <mxGeometry x="530" y="585" width="60" height="30" as="geometry" />
        </mxCell>
        <mxCell id="bM-OQi3ICgPVKk1OslJS-93" value="" style="endArrow=classic;html=1;rounded=0;exitX=0;exitY=0.5;exitDx=0;exitDy=0;entryX=0;entryY=0.5;entryDx=0;entryDy=0;" parent="1" source="bM-OQi3ICgPVKk1OslJS-88" target="bM-OQi3ICgPVKk1OslJS-104" edge="1">
          <mxGeometry width="50" height="50" relative="1" as="geometry">
            <mxPoint x="390" y="500" as="sourcePoint" />
            <mxPoint x="410" y="453" as="targetPoint" />
            <Array as="points">
              <mxPoint x="420" y="510" />
              <mxPoint x="420" y="450" />
            </Array>
          </mxGeometry>
        </mxCell>
        <mxCell id="bM-OQi3ICgPVKk1OslJS-104" value="worker_role_fk" style="text;html=1;align=center;verticalAlign=middle;whiteSpace=wrap;rounded=0;strokeColor=default;" parent="1" vertex="1">
          <mxGeometry x="440" y="430" width="140" height="30" as="geometry" />
        </mxCell>
        <mxCell id="bM-OQi3ICgPVKk1OslJS-105" value="VARCHAR 255" style="text;html=1;align=center;verticalAlign=middle;whiteSpace=wrap;rounded=0;strokeColor=default;" parent="1" vertex="1">
          <mxGeometry x="580" y="430" width="100" height="30" as="geometry" />
        </mxCell>
        <mxCell id="Wg102hl7YvBOpLfKZNE2-1" value="worker_role_value" style="text;html=1;align=center;verticalAlign=middle;whiteSpace=wrap;rounded=0;strokeColor=default;" vertex="1" parent="1">
          <mxGeometry x="440" y="555" width="140" height="30" as="geometry" />
        </mxCell>
        <mxCell id="Wg102hl7YvBOpLfKZNE2-2" value="VARCHAR 255" style="text;html=1;align=center;verticalAlign=middle;whiteSpace=wrap;rounded=0;strokeColor=default;" vertex="1" parent="1">
          <mxGeometry x="580" y="555" width="100" height="30" as="geometry" />
        </mxCell>
        <mxCell id="Wg102hl7YvBOpLfKZNE2-3" value="" style="rounded=0;whiteSpace=wrap;html=1;" vertex="1" parent="1">
          <mxGeometry x="140" y="710" width="240" height="120" as="geometry" />
        </mxCell>
        <mxCell id="Wg102hl7YvBOpLfKZNE2-4" value="project_parts_id" style="text;html=1;align=center;verticalAlign=middle;whiteSpace=wrap;rounded=0;strokeColor=default;" vertex="1" parent="1">
          <mxGeometry x="140" y="710" width="130" height="30" as="geometry" />
        </mxCell>
        <mxCell id="Wg102hl7YvBOpLfKZNE2-5" value="INT 11" style="text;html=1;align=center;verticalAlign=middle;whiteSpace=wrap;rounded=0;strokeColor=default;" vertex="1" parent="1">
          <mxGeometry x="270" y="710" width="110" height="30" as="geometry" />
        </mxCell>
        <mxCell id="Wg102hl7YvBOpLfKZNE2-6" value="part_fk" style="text;html=1;align=center;verticalAlign=middle;whiteSpace=wrap;rounded=0;strokeColor=default;" vertex="1" parent="1">
          <mxGeometry x="140" y="740" width="140" height="30" as="geometry" />
        </mxCell>
        <mxCell id="Wg102hl7YvBOpLfKZNE2-7" value="INT 11" style="text;html=1;align=center;verticalAlign=middle;whiteSpace=wrap;rounded=0;strokeColor=default;" vertex="1" parent="1">
          <mxGeometry x="280" y="740" width="100" height="30" as="geometry" />
        </mxCell>
        <mxCell id="Wg102hl7YvBOpLfKZNE2-8" value="part_fk" style="text;html=1;align=center;verticalAlign=middle;whiteSpace=wrap;rounded=0;strokeColor=default;" vertex="1" parent="1">
          <mxGeometry x="140" y="770" width="140" height="30" as="geometry" />
        </mxCell>
        <mxCell id="Wg102hl7YvBOpLfKZNE2-9" value="INT 11" style="text;html=1;align=center;verticalAlign=middle;whiteSpace=wrap;rounded=0;strokeColor=default;" vertex="1" parent="1">
          <mxGeometry x="280" y="770" width="100" height="30" as="geometry" />
        </mxCell>
        <mxCell id="Wg102hl7YvBOpLfKZNE2-10" value="part_fk" style="text;html=1;align=center;verticalAlign=middle;whiteSpace=wrap;rounded=0;strokeColor=default;" vertex="1" parent="1">
          <mxGeometry x="140" y="800" width="140" height="30" as="geometry" />
        </mxCell>
        <mxCell id="Wg102hl7YvBOpLfKZNE2-11" value="INT 11" style="text;html=1;align=center;verticalAlign=middle;whiteSpace=wrap;rounded=0;strokeColor=default;" vertex="1" parent="1">
          <mxGeometry x="280" y="800" width="100" height="30" as="geometry" />
        </mxCell>
        <mxCell id="Wg102hl7YvBOpLfKZNE2-12" value="project_parts" style="text;html=1;align=center;verticalAlign=middle;whiteSpace=wrap;rounded=0;" vertex="1" parent="1">
          <mxGeometry x="230" y="830" width="60" height="30" as="geometry" />
        </mxCell>
        <mxCell id="Wg102hl7YvBOpLfKZNE2-13" value="" style="rounded=0;whiteSpace=wrap;html=1;" vertex="1" parent="1">
          <mxGeometry x="420" y="770" width="240" height="90" as="geometry" />
        </mxCell>
        <mxCell id="Wg102hl7YvBOpLfKZNE2-14" value="part_id" style="text;html=1;align=center;verticalAlign=middle;whiteSpace=wrap;rounded=0;strokeColor=default;" vertex="1" parent="1">
          <mxGeometry x="420" y="770" width="130" height="30" as="geometry" />
        </mxCell>
        <mxCell id="Wg102hl7YvBOpLfKZNE2-15" value="INT 11" style="text;html=1;align=center;verticalAlign=middle;whiteSpace=wrap;rounded=0;strokeColor=default;" vertex="1" parent="1">
          <mxGeometry x="550" y="770" width="110" height="30" as="geometry" />
        </mxCell>
        <mxCell id="Wg102hl7YvBOpLfKZNE2-16" value="part_name" style="text;html=1;align=center;verticalAlign=middle;whiteSpace=wrap;rounded=0;strokeColor=default;" vertex="1" parent="1">
          <mxGeometry x="420" y="800" width="140" height="30" as="geometry" />
        </mxCell>
        <mxCell id="Wg102hl7YvBOpLfKZNE2-17" value="VARCHAR 255" style="text;html=1;align=center;verticalAlign=middle;whiteSpace=wrap;rounded=0;strokeColor=default;" vertex="1" parent="1">
          <mxGeometry x="560" y="800" width="100" height="30" as="geometry" />
        </mxCell>
        <mxCell id="Wg102hl7YvBOpLfKZNE2-18" value="part_price" style="text;html=1;align=center;verticalAlign=middle;whiteSpace=wrap;rounded=0;strokeColor=default;" vertex="1" parent="1">
          <mxGeometry x="420" y="830" width="140" height="30" as="geometry" />
        </mxCell>
        <mxCell id="Wg102hl7YvBOpLfKZNE2-19" value="VARCHAR 255" style="text;html=1;align=center;verticalAlign=middle;whiteSpace=wrap;rounded=0;strokeColor=default;" vertex="1" parent="1">
          <mxGeometry x="560" y="830" width="100" height="30" as="geometry" />
        </mxCell>
        <mxCell id="Wg102hl7YvBOpLfKZNE2-23" value="parts" style="text;html=1;align=center;verticalAlign=middle;whiteSpace=wrap;rounded=0;" vertex="1" parent="1">
          <mxGeometry x="520" y="860" width="60" height="30" as="geometry" />
        </mxCell>
        <mxCell id="Wg102hl7YvBOpLfKZNE2-24" value="project_part_list" style="text;html=1;align=center;verticalAlign=middle;whiteSpace=wrap;rounded=0;strokeColor=default;" vertex="1" parent="1">
          <mxGeometry x="160" y="280" width="170" height="30" as="geometry" />
        </mxCell>
        <mxCell id="Wg102hl7YvBOpLfKZNE2-25" value="VARCHAR 255" style="text;html=1;align=center;verticalAlign=middle;whiteSpace=wrap;rounded=0;strokeColor=default;" vertex="1" parent="1">
          <mxGeometry x="330" y="280" width="80" height="30" as="geometry" />
        </mxCell>
        <mxCell id="Wg102hl7YvBOpLfKZNE2-26" value="" style="endArrow=classic;html=1;rounded=0;entryX=0;entryY=0.5;entryDx=0;entryDy=0;exitX=0;exitY=0.5;exitDx=0;exitDy=0;" edge="1" parent="1" source="Wg102hl7YvBOpLfKZNE2-4" target="Wg102hl7YvBOpLfKZNE2-24">
          <mxGeometry width="50" height="50" relative="1" as="geometry">
            <mxPoint x="320" y="470" as="sourcePoint" />
            <mxPoint x="370" y="420" as="targetPoint" />
            <Array as="points">
              <mxPoint x="80" y="725" />
              <mxPoint x="80" y="295" />
            </Array>
          </mxGeometry>
        </mxCell>
        <mxCell id="Wg102hl7YvBOpLfKZNE2-27" value="" style="endArrow=classic;html=1;rounded=0;entryX=0;entryY=0.5;entryDx=0;entryDy=0;exitX=0;exitY=0.5;exitDx=0;exitDy=0;" edge="1" parent="1" source="Wg102hl7YvBOpLfKZNE2-14" target="Wg102hl7YvBOpLfKZNE2-6">
          <mxGeometry width="50" height="50" relative="1" as="geometry">
            <mxPoint x="330" y="920" as="sourcePoint" />
            <mxPoint x="380" y="870" as="targetPoint" />
            <Array as="points">
              <mxPoint x="400" y="790" />
              <mxPoint x="390" y="890" />
              <mxPoint x="110" y="890" />
              <mxPoint x="110" y="760" />
            </Array>
          </mxGeometry>
        </mxCell>
      </root>
    </mxGraphModel>
  </diagram>
</mxfile>
